<?xml version="1.0" encoding="utf-8"?>
<!-- Generator: Adobe Illustrator 26.3.1, SVG Export Plug-In . SVG Version: 6.00 Build 0)  -->
<svg version="1.1" id="Camada_1" xmlns="http://www.w3.org/2000/svg" xmlns:xlink="http://www.w3.org/1999/xlink" x="0px" y="0px"
	 viewBox="0 0 541 227.7" style="enable-background:new 0 0 541 227.7;" xml:space="preserve">
<path d="M103.8,121.6c-4-0.2-10.8-0.3-20.4-0.3c-11.5,0-20.2,0.1-26,0.3v-2.1c2.2-0.1,3.9-0.4,4.9-0.8s1.7-1.2,2.1-2.4
	c0.4-1.2,0.6-3.2,0.6-5.8V68.2c0-2.7-0.2-4.7-0.6-5.8c-0.4-1.2-1.1-2-2.1-2.5s-2.7-0.7-4.9-0.8V57c5.9,0.2,14.6,0.3,26,0.3
	c8.7,0,14.8-0.1,18.5-0.3c-0.4,4.3-0.7,8.1-0.7,11.5c0,2.8,0.1,5,0.3,6.6h-2.1c-0.4-5.8-1.5-9.9-3.2-12.2s-4.5-3.5-8.3-3.5h-6.8
	c-2.2,0-3.9,0.2-4.9,0.6s-1.7,1.2-2.1,2.4s-0.6,3.2-0.6,5.9V88h7.7c2,0,3.5-0.6,4.6-1.8c1.1-1.2,1.8-2.4,2.1-3.8s0.7-3.1,1-5.3H91
	c-0.2,2.4-0.3,5-0.3,7.9v4c0,2.8,0.2,6.7,0.6,11.9h-2.1c-0.4-3.4-1.1-6.1-2.1-8C86,91,84.1,90,81.2,90h-7.7v20.2
	c0,2.7,0.2,4.7,0.6,5.8c0.4,1.2,1.1,2,2.1,2.4s2.7,0.6,4.9,0.6h6.8c3.1,0,5.6-0.6,7.3-1.7c1.8-1.1,3.2-3,4.1-5.5s1.6-6.1,1.9-10.6
	h2.1c-0.2,1.9-0.3,4.5-0.3,7.7C103.1,112.7,103.3,116.9,103.8,121.6L103.8,121.6z"/>
<path d="M136.4,59c-2.2,0.1-3.9,0.4-4.9,0.8c-1,0.4-1.7,1.2-2.1,2.5s-0.6,3.2-0.6,5.9v42.1c0,2.7,0.2,4.7,0.6,5.8
	c0.4,1.2,1.1,2,2.1,2.4s2.6,0.6,4.9,0.6h5.9c4.3,0,7.6-1.4,10-4.4s3.8-7.7,4.3-14.5h2.1c-0.2,2.2-0.3,5.1-0.3,8.7s0.2,7.9,0.6,12.6
	c-4-0.2-10.8-0.3-20.4-0.3c-11.5,0-20.2,0.1-26,0.3v-2.1c2.2-0.1,3.9-0.4,4.9-0.8s1.7-1.2,2.1-2.4c0.4-1.2,0.6-3.2,0.6-5.8V68.2
	c0-2.7-0.2-4.7-0.6-5.8c-0.4-1.2-1.1-2-2.1-2.5s-2.7-0.7-4.9-0.8V57c2.6,0.2,6.6,0.3,11.9,0.3c5,0,8.9-0.1,11.8-0.3L136.4,59
	L136.4,59z"/>
<path d="M212.4,121.6c-4-0.2-10.8-0.3-20.4-0.3c-11.5,0-20.1,0.1-26,0.3v-2.1c2.2-0.1,3.9-0.4,4.9-0.8s1.7-1.2,2.1-2.4
	s0.6-3.2,0.6-5.8V68.2c0-2.7-0.2-4.7-0.6-5.8c-0.4-1.2-1.1-2-2.1-2.5s-2.6-0.7-4.9-0.8V57c5.9,0.2,14.6,0.3,26,0.3
	c8.7,0,14.9-0.1,18.5-0.3c-0.4,4.3-0.6,8.1-0.6,11.5c0,2.8,0.1,5,0.3,6.6H208c-0.4-5.8-1.5-9.9-3.2-12.2s-4.5-3.5-8.3-3.5h-6.8
	c-2.2,0-3.9,0.2-4.9,0.6s-1.7,1.2-2.1,2.4c-0.4,1.2-0.6,3.2-0.6,5.9V88h7.7c2,0,3.5-0.6,4.6-1.8c1.1-1.2,1.8-2.4,2.1-3.8
	s0.7-3.1,1-5.3h2.1c-0.2,2.4-0.3,5-0.3,7.9v4c0,2.8,0.2,6.7,0.6,11.9h-2.1c-0.4-3.4-1.1-6.1-2.1-8c-1.1-1.9-3-2.9-5.9-2.9h-7.7v20.2
	c0,2.7,0.2,4.7,0.6,5.8c0.4,1.2,1.1,2,2.1,2.4s2.6,0.6,4.9,0.6h6.8c3.1,0,5.6-0.6,7.4-1.7s3.2-3,4.1-5.5c0.9-2.5,1.6-6.1,1.9-10.6
	h2.1c-0.2,1.9-0.3,4.5-0.3,7.7C211.7,112.7,212,116.9,212.4,121.6L212.4,121.6z"/>
<path d="M287.8,59.9c-1,0.4-1.7,1.2-2.1,2.5s-0.6,3.2-0.6,5.8v42.1c0,2.7,0.2,4.7,0.6,5.8c0.4,1.2,1.1,2,2.1,2.4s2.6,0.7,4.9,0.8
	v2.1c-2.9-0.2-6.8-0.3-11.8-0.3c-5.3,0-9.3,0.1-11.9,0.3v-2.1c2.2-0.1,3.9-0.4,4.9-0.8s1.7-1.2,2.1-2.4s0.6-3.2,0.6-5.8V63.6
	L254,122.1h-1.5L231,63.7v45.5c0,2.8,0.2,4.8,0.6,6.2c0.4,1.3,1.2,2.3,2.4,2.9s3,1,5.5,1.1v2.1c-2.2-0.2-5.4-0.3-9.5-0.3
	c-3.7,0-6.6,0.1-8.6,0.3v-2.1c2.2-0.1,3.8-0.5,4.8-1.1c1.1-0.6,1.8-1.6,2.1-3c0.4-1.4,0.6-3.4,0.6-6.1v-41c0-2.7-0.2-4.7-0.6-5.8
	c-0.4-1.2-1.1-2-2.1-2.5s-2.6-0.7-4.9-0.8V57c2.1,0.2,4.9,0.3,8.6,0.3c3,0,5.6-0.1,7.9-0.3l18.7,51.8l19.9-51.5h4.4
	c5,0,9-0.1,11.8-0.3v2C290.4,59.2,288.8,59.5,287.8,59.9L287.8,59.9z"/>
<path d="M346.8,121.6c-4-0.2-10.8-0.3-20.4-0.3c-11.5,0-20.1,0.1-26,0.3v-2.1c2.2-0.1,3.9-0.4,4.9-0.8s1.7-1.2,2.1-2.4
	s0.6-3.2,0.6-5.8V68.2c0-2.7-0.2-4.7-0.6-5.8c-0.4-1.2-1.1-2-2.1-2.5s-2.6-0.7-4.9-0.8V57c5.9,0.2,14.6,0.3,26,0.3
	c8.7,0,14.9-0.1,18.5-0.3c-0.4,4.3-0.6,8.1-0.6,11.5c0,2.8,0.1,5,0.3,6.6h-2.1c-0.4-5.8-1.5-9.9-3.2-12.2s-4.5-3.5-8.3-3.5h-6.8
	c-2.2,0-3.9,0.2-4.9,0.6c-1,0.4-1.7,1.2-2.1,2.4s-0.6,3.2-0.6,5.9V88h7.7c2,0,3.5-0.6,4.6-1.8c1-1.2,1.8-2.4,2.1-3.8s0.7-3.1,1-5.3
	h2.1c-0.2,2.4-0.3,5-0.3,7.9v4c0,2.8,0.2,6.7,0.6,11.9h-2.1c-0.4-3.4-1.1-6.1-2.1-8s-3-2.9-5.9-2.9h-7.7v20.2c0,2.7,0.2,4.7,0.6,5.8
	c0.4,1.2,1.1,2,2.1,2.4s2.6,0.6,4.9,0.6h6.8c3.1,0,5.5-0.6,7.4-1.7c1.8-1.1,3.2-3,4.1-5.5s1.6-6.1,2-10.6h2.1
	c-0.2,1.9-0.3,4.5-0.3,7.7C346.2,112.7,346.4,116.9,346.8,121.6L346.8,121.6z"/>
<path d="M412.3,59c-2.2,0.1-3.8,0.5-4.8,1.1s-1.8,1.6-2.1,3c-0.4,1.4-0.6,3.4-0.6,6.1v52.9h-2.1l-37.2-59v46.1
	c0,2.8,0.2,4.8,0.6,6.2c0.4,1.3,1.2,2.3,2.4,2.9c1.2,0.6,3,1,5.5,1.1v2.1c-2.2-0.2-5.4-0.3-9.5-0.3c-3.7,0-6.6,0.1-8.6,0.3v-2.1
	c2.2-0.1,3.8-0.5,4.8-1.1s1.8-1.6,2.1-3s0.6-3.4,0.6-6.1v-41c0-2.7-0.2-4.7-0.6-5.8c-0.4-1.2-1.1-2-2.1-2.5s-2.6-0.7-4.9-0.8V57
	c2,0.2,4.9,0.3,8.6,0.3c3.4,0,6.2-0.1,8.5-0.3l29.7,47.2V69.3c0-2.8-0.2-4.8-0.6-6.2s-1.2-2.3-2.4-2.9c-1.2-0.6-3-1-5.5-1.1V57
	c2.2,0.2,5.4,0.3,9.5,0.3c3.7,0,6.6-0.1,8.6-0.3L412.3,59L412.3,59z"/>
<path d="M470.4,69.5c0,3.7,0.1,6.6,0.3,8.7h-2.1c-0.4-5-1-8.8-1.8-11.4s-2.1-4.5-3.9-5.7s-4.4-1.8-7.7-1.8h-6v49.9
	c0,3,0.2,5.1,0.7,6.5c0.5,1.3,1.4,2.3,2.6,2.8s3.2,0.8,6,1v2.1c-3.2-0.2-7.8-0.3-13.7-0.3c-6.2,0-10.8,0.1-13.8,0.3v-2.1
	c2.8-0.1,4.8-0.5,6-1s2.1-1.4,2.6-2.8c0.5-1.3,0.7-3.5,0.7-6.5V59.3h-6c-3.4,0-5.9,0.6-7.7,1.8s-3.1,3.1-3.9,5.7s-1.4,6.4-1.8,11.4
	H419c0.2-2.3,0.3-5.2,0.3-8.7s-0.2-7.9-0.6-12.6c5.1,0.2,13.9,0.3,26.2,0.3s21-0.1,26.1-0.3C470.6,61.6,470.4,65.8,470.4,69.5
	L470.4,69.5z"/>
<path d="M485.9,111.5c1.2,1.3,1.8,2.9,1.8,4.8s-0.6,3.4-1.8,4.8s-2.6,2-4.2,2s-3-0.7-4.2-2s-1.8-2.9-1.8-4.8s0.6-3.4,1.8-4.8
	s2.6-2,4.2-2S484.7,110.2,485.9,111.5z"/>
<path d="M72.7,163.5v0.7c-0.8-0.1-1.9-0.1-3.3-0.1c-1.8,0-3.1,0-4,0.1v-0.7c0.8-0.1,1.3-0.2,1.7-0.4c0.4-0.2,0.5-0.5,0.5-1
	c0-0.4-0.2-0.9-0.4-1.7l-1.6-4h-7.5l-1,2.7c-0.3,0.9-0.5,1.7-0.5,2.3s0.2,1.1,0.6,1.4c0.4,0.3,1,0.6,1.8,0.7v0.7
	c-0.6-0.1-1.6-0.1-2.8-0.1s-2.2,0-2.7,0.1v-0.7c0.6-0.2,1-0.5,1.4-1.1s0.8-1.3,1.1-2.2l6.8-17.7h0.5l7.2,18.8
	C71.1,162.7,71.8,163.4,72.7,163.5L72.7,163.5z M65.4,155.7l-3.5-9l-3.5,9H65.4L65.4,155.7z"/>
<path d="M92.7,143.3c-0.7,0.1-1.3,0.2-1.6,0.4s-0.6,0.5-0.7,1s-0.2,1.1-0.2,2v17.6h-0.7l-12.4-19.6v15.4c0,0.9,0.1,1.6,0.2,2.1
	s0.4,0.8,0.8,1s1,0.3,1.8,0.4v0.7c-0.7-0.1-1.8-0.1-3.2-0.1c-1.2,0-2.2,0-2.9,0.1v-0.7c0.7-0.1,1.3-0.2,1.6-0.4s0.6-0.5,0.7-1
	s0.2-1.1,0.2-2v-13.7c0-0.9-0.1-1.6-0.2-1.9c-0.1-0.4-0.4-0.7-0.7-0.8c-0.3-0.1-0.9-0.2-1.6-0.3v-0.7c0.7,0.1,1.6,0.1,2.9,0.1
	c1.1,0,2.1,0,2.8-0.1l9.9,15.8V147c0-0.9-0.1-1.6-0.2-2.1s-0.4-0.8-0.8-1s-1-0.3-1.8-0.4v-0.7c0.7,0.1,1.8,0.1,3.2,0.1
	c1.2,0,2.2,0,2.9-0.1L92.7,143.3L92.7,143.3z"/>
<path d="M112.1,146.8c0,1.2,0,2.2,0.1,2.9h-0.7c-0.1-1.6-0.3-2.9-0.6-3.8c-0.3-0.9-0.7-1.5-1.3-1.9c-0.6-0.4-1.5-0.6-2.6-0.6h-2V160
	c0,1,0.1,1.7,0.2,2.2s0.4,0.8,0.9,0.9c0.4,0.2,1.1,0.3,2,0.3v0.7c-1.1-0.1-2.6-0.1-4.6-0.1c-2.1,0-3.6,0-4.6,0.1v-0.7
	c0.9-0.1,1.6-0.1,2-0.3s0.7-0.5,0.9-0.9c0.2-0.4,0.2-1.2,0.2-2.2v-16.6h-2c-1.1,0-2,0.2-2.6,0.6s-1,1-1.3,1.9s-0.5,2.1-0.6,3.8H95
	c0.1-0.8,0.1-1.7,0.1-2.9s-0.1-2.6-0.2-4.2c1.7,0.1,4.6,0.1,8.7,0.1s7,0,8.7-0.1C112.2,144.1,112.1,145.6,112.1,146.8z"/>
<path d="M122.6,143.3c-0.7,0.1-1.3,0.1-1.6,0.3s-0.6,0.4-0.7,0.8c-0.1,0.4-0.2,1.1-0.2,1.9v14.1c0,0.9,0.1,1.6,0.2,1.9
	c0.1,0.4,0.4,0.7,0.7,0.8s0.9,0.2,1.6,0.3v0.7c-0.9-0.1-2.3-0.1-3.9-0.1c-1.8,0-3.1,0-4,0.1v-0.7c0.7-0.1,1.3-0.1,1.6-0.3
	s0.6-0.4,0.7-0.8c0.1-0.4,0.2-1.1,0.2-1.9v-14.1c0-0.9-0.1-1.6-0.2-1.9c-0.1-0.4-0.4-0.7-0.7-0.8c-0.3-0.1-0.9-0.2-1.6-0.3v-0.7
	c0.9,0.1,2.2,0.1,4,0.1c1.7,0,3,0,3.9-0.1V143.3z"/>
<path d="M148.2,165.2c-0.4,1.9-1.2,3.3-2.2,4.2s-2.5,1.4-4.2,1.4c-1.1,0-2.2-0.2-3.3-0.6c-1.1-0.4-2.5-1-4.2-1.8
	c-1.9-0.9-3.3-1.4-4.1-1.7c-0.9,0.4-1.8,0.5-2.6,0.5c-0.9,0-1.4-0.2-1.4-0.7s0.6-0.8,1.7-0.8c0.7,0,1.5,0.1,2.3,0.3
	c0.7-0.2,1.4-0.5,2.3-1c0.5-0.3,0.9-0.5,1.2-0.6c-2.6-0.3-4.6-1.4-6.1-3.3c-1.5-1.9-2.3-4.5-2.3-7.7c0-2.3,0.4-4.3,1.2-6
	c0.8-1.7,2-3.1,3.4-4c1.4-1,3.1-1.4,4.9-1.4s3.6,0.4,5,1.3c1.4,0.9,2.6,2.1,3.3,3.8c0.8,1.7,1.2,3.7,1.2,6c0,2.1-0.4,4-1.1,5.7
	c-0.7,1.7-1.7,3-3,4s-2.8,1.6-4.4,1.8c-0.5,0.1-0.9,0.2-1.3,0.3c-0.4,0.1-0.8,0.3-1.4,0.6c-0.7,0.4-1.4,0.6-1.9,0.8
	c2.5,0.5,4.3,0.9,5.5,1.1c2.2,0.4,3.8,0.6,5,0.6c1.6,0,2.9-0.2,3.9-0.8s1.7-1.3,2.2-2.3L148.2,165.2L148.2,165.2z M129.2,159
	c0.6,1.6,1.4,2.8,2.4,3.7s2.1,1.3,3.3,1.3s2.4-0.4,3.3-1.4c1-0.9,1.7-2.2,2.2-3.8s0.8-3.5,0.8-5.6s-0.3-4-0.9-5.6s-1.4-2.8-2.4-3.7
	s-2.1-1.3-3.3-1.3s-2.4,0.5-3.3,1.4c-1,0.9-1.7,2.2-2.2,3.8s-0.8,3.5-0.8,5.6S128.6,157.4,129.2,159L129.2,159z"/>
<path d="M165.4,143.3c-0.7,0.1-1.3,0.2-1.6,0.4s-0.6,0.5-0.7,1s-0.2,1.1-0.2,2v7.8c0,1.6-0.1,3-0.3,4.2c-0.2,1.1-0.5,2.1-1,3
	s-1.2,1.6-2.1,2.1c-0.9,0.5-2,0.8-3.2,0.8c-2.1,0-3.8-0.5-4.9-1.6c-0.9-0.9-1.5-2-1.8-3.2s-0.5-2.9-0.5-5.3v-8.3
	c0-0.9-0.1-1.6-0.2-1.9c-0.1-0.4-0.4-0.7-0.7-0.8s-0.9-0.2-1.6-0.3v-0.7c0.9,0.1,2.2,0.1,4,0.1c1.6,0,3,0,3.9-0.1v0.7
	c-0.7,0.1-1.3,0.1-1.6,0.3c-0.3,0.1-0.6,0.4-0.7,0.8c-0.1,0.4-0.2,1.1-0.2,1.9v8.9c0,1.8,0.1,3.2,0.3,4.3s0.6,2.1,1.3,2.8
	s1.7,1.1,3,1.1c2.1,0,3.5-0.8,4.4-2.2c0.9-1.5,1.3-3.6,1.3-6.2v-8.2c0-1.3-0.2-2.1-0.6-2.6c-0.4-0.5-1.1-0.7-2.2-0.8v-0.7
	c0.7,0.1,1.8,0.1,3.2,0.1c1.2,0,2.2,0,2.9-0.1L165.4,143.3L165.4,143.3z"/>
<path d="M184.5,163.5v0.7c-0.8-0.1-1.9-0.1-3.3-0.1c-1.8,0-3.1,0-4,0.1v-0.7c0.8-0.1,1.3-0.2,1.7-0.4s0.5-0.5,0.5-1
	c0-0.4-0.1-0.9-0.4-1.7l-1.6-4h-7.5l-1.1,2.7c-0.4,0.9-0.5,1.7-0.5,2.3s0.2,1.1,0.6,1.4c0.4,0.3,1,0.6,1.8,0.7v0.7
	c-0.6-0.1-1.6-0.1-2.8-0.1s-2.2,0-2.7,0.1v-0.7c0.6-0.2,1-0.5,1.4-1.1s0.8-1.3,1.1-2.2l6.9-17.7h0.5l7.2,18.8
	C182.9,162.7,183.6,163.4,184.5,163.5L184.5,163.5z M177.2,155.7l-3.5-9l-3.5,9H177.2L177.2,155.7z M178.8,133.2
	c0.4,0,0.7,0.2,1,0.6c0.1,0.2,0.2,0.4,0.2,0.7c0,0.5-0.3,1-0.8,1.4c-0.4,0.3-1.2,0.7-2.2,1.1c-1.6,0.7-2.9,1.4-4,2l-0.2-0.5
	c0.9-0.7,1.6-1.4,2.2-2c0.6-0.6,1-1,1.1-1.1c0.8-0.8,1.4-1.4,1.9-1.8C178.2,133.3,178.5,133.2,178.8,133.2L178.8,133.2z"/>
<path d="M204,162.7c-0.4,0.6-0.8,1.1-1.4,1.5c-0.5,0.3-1.1,0.5-1.8,0.5c-1.7,0-2.8-0.9-3.2-2.7l-1-4.4c-0.3-1.3-0.7-2.2-1.3-2.7
	c-0.6-0.4-1.4-0.7-2.5-0.7H191v6.2c0,0.9,0.1,1.6,0.2,1.9c0.1,0.4,0.4,0.7,0.7,0.8s0.9,0.2,1.6,0.3v0.7c-0.9-0.1-2.3-0.1-3.9-0.1
	c-1.8,0-3.1,0-4,0.1v-0.7c0.7-0.1,1.3-0.1,1.6-0.3c0.3-0.1,0.6-0.4,0.7-0.8c0.1-0.4,0.2-1.1,0.2-1.9v-14.1c0-0.9-0.1-1.6-0.2-1.9
	c-0.1-0.4-0.4-0.7-0.7-0.8s-0.9-0.2-1.6-0.3v-0.7c0.9,0.1,2.1,0.1,3.8,0.1h3.2c0.4,0,0.8,0,1.2,0c2.3,0,4.1,0.5,5.3,1.5
	s1.8,2.3,1.8,3.9c0,1.4-0.5,2.6-1.4,3.8s-2.5,1.9-4.7,2.2c0.4,0.1,0.8,0.1,1.1,0.1c1.1,0.2,2,0.6,2.6,1.1c0.6,0.6,1.1,1.5,1.4,2.7
	l0.7,3.2c0.2,0.8,0.4,1.4,0.5,1.8c0.2,0.3,0.4,0.5,0.8,0.5c0.5,0,1.1-0.4,1.7-1.2L204,162.7L204,162.7z M191.8,143.6
	c-0.3,0.2-0.5,0.5-0.6,0.9s-0.1,1.1-0.1,1.9v7.1h2.1c1.8,0,3.1-0.4,3.7-1.3s1-2.1,1-3.8s-0.4-3-1.1-3.8s-2-1.3-3.7-1.3
	C192.5,143.3,192.1,143.4,191.8,143.6L191.8,143.6z"/>
<path d="M212.9,143.3c-0.7,0.1-1.3,0.1-1.6,0.3c-0.3,0.1-0.6,0.4-0.7,0.8c-0.1,0.4-0.2,1.1-0.2,1.9v14.1c0,0.9,0.1,1.6,0.2,1.9
	c0.1,0.4,0.4,0.7,0.7,0.8s0.9,0.2,1.6,0.3v0.7c-0.9-0.1-2.3-0.1-3.9-0.1c-1.8,0-3.1,0-4,0.1v-0.7c0.7-0.1,1.3-0.1,1.6-0.3
	c0.3-0.1,0.6-0.4,0.7-0.8c0.1-0.4,0.2-1.1,0.2-1.9v-14.1c0-0.9-0.1-1.6-0.2-1.9c-0.1-0.4-0.4-0.7-0.7-0.8s-0.9-0.2-1.6-0.3v-0.7
	c0.9,0.1,2.2,0.1,4,0.1c1.6,0,3,0,3.9-0.1V143.3z"/>
<path d="M230.2,143.4c1.4,0.9,2.6,2.1,3.3,3.8s1.2,3.7,1.2,6s-0.4,4.3-1.2,6s-1.9,3.1-3.4,4c-1.4,1-3.1,1.4-4.9,1.4s-3.6-0.4-5-1.3
	c-1.4-0.9-2.6-2.1-3.3-3.8s-1.2-3.7-1.2-6s0.4-4.3,1.2-6s1.9-3.1,3.4-4c1.4-1,3.1-1.4,4.9-1.4S228.7,142.5,230.2,143.4z
	 M221.7,144.1c-1,0.9-1.7,2.2-2.2,3.8s-0.8,3.5-0.8,5.6s0.3,4,0.9,5.6s1.4,2.8,2.4,3.7s2.1,1.3,3.3,1.3s2.4-0.4,3.3-1.4
	c1-0.9,1.7-2.2,2.2-3.8s0.8-3.5,0.8-5.6s-0.3-4-0.9-5.6s-1.4-2.8-2.4-3.7s-2.1-1.3-3.3-1.3S222.7,143.2,221.7,144.1L221.7,144.1z"/>
</svg>
